# xmcd
# Copyright (C) 1995-1998 Ti Kan
#
# Track frame offsets:
#       182
#       16292
#       30192
#       45225
#       55032
#       74125
#       89907
#       105745
#       119582
#       133572
#       152057
#       166257
#       178530
#       197915
#       212775
#       228225
#       249952
#
# Disc length: 3552 seconds
#
# Revision: 0
# Processed by: cddbd v1.5.1PL0 Copyright (c) Steve Scherf et al.
# Submitted via: CD-Transfer v1.0
#
DISCID=e40dde11
DTITLE=Lake City Stompers - 
DYEAR=1900
DGENRE=
TTITLE0=That's a plenty
TTITLE1=Hello Dolly
TTITLE2=Honeysuckle Rose
TTITLE3=All of me
TTITLE4=If I could be with you
TTITLE5=Cabaret
TTITLE6=West end Blues
TTITLE7=My Monday date
TTITLE8=Basin street blues
TTITLE9=High Society
TTITLE10=Blueberry Hill
TTITLE11=Hotter than that
TTITLE12=Ain't misbehavin'
TTITLE13=Squeeze me
TTITLE14=Muskrat ramble
TTITLE15=On the sunny side of the street
TTITLE16=New Orleans function
EXTD=
EXTT0=
EXTT1=
EXTT2=
EXTT3=
EXTT4=
EXTT5=
EXTT6=
EXTT7=
EXTT8=
EXTT9=
EXTT10=
EXTT11=
EXTT12=
EXTT13=
EXTT14=
EXTT15=
EXTT16=
PLAYORDER=
